M48
;Layer_Color=9474304
;FILE_FORMAT=4:4
METRIC
;TYPE=PLATED
T1F00S00C0.7000
T2F00S00C0.8000
T3F00S00C0.8890
T4F00S00C0.9000
T5F00S00C1.0000
T6F00S00C1.3000
;TYPE=NON_PLATED
T7F00S00C3.0000
%
T01
X00848360Y00590550
Y00692150
X00985520
Y00590550
X01062990Y00604520
X01065286Y00522770
X01085850Y00670560
X01179830Y00669290
X00713740Y00692150
Y00590550
X00574040
Y00692150
X00528320Y00868680
X00420370
X00974090Y00975360
Y01066800
X01087120Y00934720
X01187450
X01084580Y00816610
X01212850Y00815340
X01169670Y01228090
X01068070
T02
X00499872Y00971550
Y00996950
X00526796
Y00971550
X00584200Y01134110
Y01159510
X01022350Y01084580
X01079500Y01108710
X01108710Y01084580
X01125539Y01135380
Y01160780
X01152464
Y01135380
X01079500Y01184910
X01241618Y01157004
Y01131604
X01268541
Y01157004
T03
X01184910Y00981710
Y01014730
X01286510
Y00981710
T04
X01131570Y00557530
Y00582930
Y00608330
Y00633730
Y00703580
Y00728980
Y00754380
Y00779780
Y00848360
Y00875030
Y00900430
Y00967740
Y00993140
Y01018540
Y01043940
T05
X01220470Y00760730
X01245870
X00960120Y00763270
X00934720
X00909320
X00883920
X00858520
X00833120
X00807720
X00924560Y00664210
Y00613410
X00791210
Y00664210
X00782320Y00763270
X00756920
X00731520
X00706120
X00680720
X00655320
X00629920
X00604520
X00579120
X00553720
X00528320
X00502920
X00477520
X00499110Y00664210
Y00613410
X00646430
Y00664210
X00655320Y00915670
X00680720
X00706120
X00731520
X00756920
X00782320
Y00994410
X00756920
X00731520
X00706120
X00680720
X00627380Y01052830
X00547370Y01109980
Y01186180
X00553720Y00915670
X00579120
X00604520
X00629920
X00528320
X00502920
X00477520
X00807720
X00833120
X00858520
X00883920
X00909320
X00934720
X00960120
X00858520Y00994410
X00833120
X00807720
X01022340Y01052830
X01200150Y01118870
Y01144270
Y01169670
X01220470Y00848360
X01245870
X01225550Y01228090
X01200150
X01022340Y01227830
X00627380
T06
X00491490Y01040130
Y01090930
Y01205230
Y01256030
T07
X01293560Y00539670
X00370760Y00539270
X01292460Y01254970
X00370360Y01250670
M30
